<?xml version="1.0" encoding="UTF-8" standalone="no"?>
<svg xmlns="http://www.w3.org/2000/svg" width="64" height="64" viewBox="0 0 64 64" fill="none">
  <circle cx="32" cy="32" r="30" fill="#EEF2FF" />
  <path d="M32 8C19.85 8 10 17.85 10 30V44C10 46.21 11.79 48 14 48H50C52.21 48 54 46.21 54 44V30C54 17.85 44.15 8 32 8Z" fill="#4F46E5" fillOpacity="0.1" />
  <path d="M32 8C19.85 8 10 17.85 10 30V44C10 46.21 11.79 48 14 48H50C52.21 48 54 46.21 54 44V30C54 17.85 44.15 8 32 8Z" stroke="#4F46E5" strokeWidth="2" strokeLinecap="round" strokeLinejoin="round" />
  <path d="M20 30V24C20 17.37 25.37 12 32 12C38.63 12 44 17.37 44 24V30" stroke="#4F46E5" strokeWidth="2" strokeLinecap="round" strokeLinejoin="round" />
  <rect x="24" y="30" width="16" height="18" rx="2" fill="#4F46E5" />
  <circle cx="32" cy="39" r="3" fill="white" />
</svg>
